<?xml version="1.0" encoding="UTF-8"?>
<svg version="1.1" xmlns="http://www.w3.org/2000/svg" width="942" height="1280">
<path d="M0 0 C1.22627501 2.45255002 0.96028596 3.61661961 0.625 6.3125 C0.48964844 7.45138672 0.48964844 7.45138672 0.3515625 8.61328125 C-0.01426466 11.09684116 -0.4868584 13.54300845 -1 16 C0.24716797 15.3503125 0.24716797 15.3503125 1.51953125 14.6875 C3.14955078 13.8521875 3.14955078 13.8521875 4.8125 13 C5.89144531 12.443125 6.97039063 11.88625 8.08203125 11.3125 C11 10 11 10 14 10 C14.33 11.65 14.66 13.3 15 15 C15.804375 14.67 16.60875 14.34 17.4375 14 C21.73804795 12.79282865 25.56966181 12.82278647 30 13 C30.33 13.66 30.66 14.32 31 15 C25.8435515 21.61714893 19.91535443 26.29805919 13 31 C16.47234264 34.61702359 20.21036169 37.4034539 25 39 C26.42290786 41.84581571 25.60834084 43.81065654 25.125 46.9375 C24.50001879 53.73699436 26.20536976 57.1961918 30.23828125 62.5625 C33.48905207 67.06024056 34.35536218 71.37006114 35.125 76.8125 C35.29257812 77.97394531 35.46015625 79.13539062 35.6328125 80.33203125 C35.75398437 81.21246094 35.87515625 82.09289062 36 83 C38.18895188 83.18661914 38.18895188 83.18661914 40.3125 81.4375 C43 80 43 80 45.48828125 80.05859375 C48 81 48 81 49.5546875 83.3515625 C52.6509372 91.02806324 55.3630912 98.7993146 57.875 106.6875 C58.18550293 107.63641113 58.49600586 108.58532227 58.81591797 109.56298828 C61.62353908 118.74132229 61.48582406 127.16259915 60 136.5625 C58.88312976 144.50915232 58.05673955 151.33165512 60.4921875 159.0625 C62.16379046 165.02831609 62.49742705 170.57800537 62.4375 176.75 C62.43282715 177.8428833 62.4281543 178.9357666 62.42333984 180.06176758 C62.28091034 188.07661143 61.17829461 195.57018232 59.56640625 203.40136719 C57.41647654 214.60901132 57.15619893 225.95900063 56.77197266 237.33862305 C56.3060014 250.00746187 55.26280098 262.62219903 49.75 274.25 C49.29548462 275.24193359 49.29548462 275.24193359 48.83178711 276.25390625 C40.67199881 293.62323087 29.68544528 304.02886451 11.72460938 310.63452148 C10.18316446 311.17792147 8.63940842 311.7147972 7.09375 312.24609375 C6.24037048 312.54229614 5.38699097 312.83849854 4.50775146 313.14367676 C-2.48986224 315.54376171 -9.54053825 317.75768998 -16.609375 319.9375 C-17.68338562 320.27031479 -18.75739624 320.60312958 -19.86395264 320.94602966 C-28.74443746 323.69664756 -28.74443746 323.69664756 -33.1328125 325.02050781 C-36.42279063 326.01570711 -39.70380754 327.03676866 -42.984375 328.0625 C-43.97403259 328.35439209 -44.96369019 328.64628418 -45.9833374 328.94702148 C-52.67526541 331.0721929 -57.07129797 334.03130477 -62 339 C-63.39583333 340.29166667 -64.79166667 341.58333333 -66.1875 342.875 C-66.79980469 343.44992187 -67.41210938 344.02484375 -68.04296875 344.6171875 C-70 346 -70 346 -72.61328125 346.3828125 C-73.79470703 346.68832031 -73.79470703 346.68832031 -75 347 C-76.34129594 349.23365332 -76.34129594 349.23365332 -77 352 C-77.24621094 352.8559375 -77.49242187 353.711875 -77.74609375 354.59375 C-79.10561408 360.30834391 -80.15589892 365.93250937 -80.87280273 371.75802612 C-82.63298345 385.74117824 -86.02493711 399.23571396 -89.5 412.875 C-91.46551683 420.66109482 -93.41714077 428.45033822 -95.32470703 436.25085449 C-95.7346706 437.91983308 -96.14963219 439.58760878 -96.57373047 441.25305176 C-101.67089447 461.40176809 -98.5742544 480.88204201 -94.625 500.9375 C-94.40368408 502.09422211 -94.18236816 503.25094421 -93.9543457 504.44271851 C-90.58296138 521.9938289 -86.27115677 538.68514304 -79.94287109 555.39306641 C-76.28410689 565.50914205 -76.28410689 565.50914205 -78 571 C-79.32 571 -80.64 571 -82 571 C-81.67 571.66 -81.34 572.32 -81 573 C-80.75984273 575.17428103 -80.52322796 577.34900286 -80.30297852 579.52539062 C-79.03465713 591.45435698 -76.52164148 602.90022542 -73.5625 614.5 C-73.36954346 615.25641785 -73.17658691 616.01283569 -72.9777832 616.79217529 C-71.85508113 621.17154413 -70.70772936 625.54398095 -69.5484314 629.91378784 C-69.00876367 631.96666332 -68.48361208 634.02275309 -67.9621582 636.08032227 C-66.124773 643.26734484 -63.98645589 650.1182864 -61.0625 656.9375 C-51.81288217 679.30350293 -51.81288217 679.30350293 -51 690 C-53.16850415 693.25275623 -53.49492248 693.44566437 -57.015625 694.4296875 C-57.84384766 694.66349121 -58.67207031 694.89729492 -59.52539062 695.13818359 C-60.87407227 695.50290771 -60.87407227 695.50290771 -62.25 695.875 C-63.64508789 696.28419678 -63.64508789 696.28419678 -65.06835938 696.70166016 C-69.99585481 698.10350456 -74.72520804 699.16008522 -79.828125 699.65625 C-89.88011107 700.69815287 -89.88011107 700.69815287 -98.01611328 706.17919922 C-101.9712839 711.95587234 -104.74525896 718.27765624 -107.515625 724.68505859 C-109.89480013 729.99828885 -112.73700405 735.03944063 -115.5625 740.125 C-116.64413846 742.11598772 -117.72357717 744.10817212 -118.80078125 746.1015625 C-132.8813675 772.06813526 -132.8813675 772.06813526 -138.875 782.625 C-141.35168617 786.98912359 -143.7269396 791.36767351 -145.9375 795.875 C-148.39292329 800.8805461 -151.03746578 805.75602961 -153.75 810.625 C-154.17063721 811.3876416 -154.59127441 812.1502832 -155.0246582 812.93603516 C-157.22284521 816.90163576 -159.48017049 820.80885987 -161.8671875 824.6640625 C-162.32899414 825.43282715 -162.79080078 826.2015918 -163.26660156 826.99365234 C-164.13676555 828.43902538 -165.03013943 829.87082624 -165.95214844 831.28369141 C-172.08868857 841.6357033 -168.85787757 855.97835012 -167.9765625 867.46875 C-167.86885532 868.92058419 -167.76155488 870.37244861 -167.65463257 871.82434082 C-167.430772 874.84993523 -167.20358697 877.87525334 -166.97363281 880.90039062 C-166.68428708 884.70743315 -166.40094058 888.51488976 -166.11981201 892.32254696 C-165.13387533 905.66406117 -164.12734996 918.99882807 -162.8515625 932.31640625 C-162.11986259 940.03352735 -161.67598751 947.67936051 -161.75 955.4375 C-161.75821777 956.52877197 -161.76643555 957.62004395 -161.77490234 958.74438477 C-161.94301609 970.9127473 -162.37892322 980.92714359 -168.77734375 991.5859375 C-170.34316056 994.67755025 -170.59973892 996.61908599 -169.7890625 999.96484375 C-166.5243244 1008.38528211 -162.93937138 1012.8420438 -154.5859375 1016.55078125 C-148.34605849 1020.04775272 -146.5060635 1026.17076063 -144.0625 1032.5 C-133.70138947 1058.51463422 -122.11240927 1084.66449466 -108.5625 1109.1875 C-105.84418207 1114.18068144 -103.5771962 1119.1939624 -101.5625 1124.5 C-101.31508057 1125.14735107 -101.06766113 1125.79470215 -100.81274414 1126.46166992 C-99.28619811 1130.66307776 -98.49470778 1134.58743404 -98 1139 C-96.86820313 1139.40992188 -95.73640625 1139.81984375 -94.5703125 1140.2421875 C-93.088435 1140.78616785 -91.60666996 1141.33045463 -90.125 1141.875 C-89.37863281 1142.14441406 -88.63226562 1142.41382813 -87.86328125 1142.69140625 C-82.2265625 1144.7734375 -82.2265625 1144.7734375 -80 1147 C-79.33325195 1149.22045898 -79.33325195 1149.22045898 -78.73828125 1151.99609375 C-78.51043945 1153.01985107 -78.28259766 1154.0436084 -78.04785156 1155.09838867 C-77.68385254 1156.75124878 -77.68385254 1156.75124878 -77.3125 1158.4375 C-73.72126641 1173.95644392 -68.46898561 1187.96305048 -61.75 1202.375 C-53.35885624 1220.45063001 -53.35885624 1220.45063001 -54.4765625 1231.0078125 C-55.16022433 1237.60612581 -54.88562276 1244.07276862 -54.5625 1250.6875 C-54.51029297 1251.87794922 -54.45808594 1253.06839844 -54.40429688 1254.29492188 C-54.27609361 1257.19697766 -54.14121378 1260.09855322 -54 1263 C-70.98647355 1266.2808645 -100.56177323 1271.21911338 -117 1263 C-117.62669199 1260.83532539 -118.15427374 1258.64135476 -118.625 1256.4375 C-118.88539063 1255.23996094 -119.14578125 1254.04242187 -119.4140625 1252.80859375 C-119.60742188 1251.88175781 -119.80078125 1250.95492188 -120 1250 C-124.08481879 1250.59437837 -128.1675104 1251.2023453 -132.25 1251.8125 C-133.38953125 1251.97814453 -134.5290625 1252.14378906 -135.703125 1252.31445312 C-142.3722853 1253.31861647 -148.85025555 1254.59922612 -155.36401367 1256.35351562 C-180.71777172 1262.57160874 -221.62652857 1259.84743044 -244.32421875 1246.6484375 C-246 1245 -246 1245 -246.53125 1242.6953125 C-246.48198049 1238.64289539 -246.39844905 1235.76369401 -244.5 1232.125 C-238.36162201 1226.90737871 -231.95654957 1225.3867822 -224.20068359 1223.98022461 C-219.2350982 1223.06887875 -214.32932746 1221.94357984 -209.41552734 1220.78808594 C-207.30980504 1220.30221949 -205.19614856 1219.84794537 -203.07275391 1219.44628906 C-198.14906995 1218.44445678 -193.83323418 1217.20097013 -190.31201172 1213.46875 C-184.81749479 1203.12997904 -186.72950795 1187.71342472 -186.96063232 1176.32537842 C-187.02557952 1172.48906316 -187.01278601 1168.65313919 -187.00390625 1164.81640625 C-187.0030603 1162.84522827 -187.0030603 1162.84522827 -187.00219727 1160.83422852 C-187.00147217 1159.89893311 -187.00074707 1158.9636377 -187 1158 C-188.0631543 1157.71334473 -189.12630859 1157.42668945 -190.22167969 1157.13134766 C-193.20925073 1156.23677514 -195.70811846 1155.32227329 -198.453125 1153.8984375 C-199.23220215 1153.49455811 -200.0112793 1153.09067871 -200.81396484 1152.67456055 C-201.61785645 1152.24570557 -202.42174805 1151.81685059 -203.25 1151.375 C-204.08611816 1150.9313208 -204.92223633 1150.4876416 -205.78369141 1150.03051758 C-214.22835952 1145.46634048 -222.70409447 1140.38140648 -229 1133 C-229 1132.34 -229 1131.68 -229 1131 C-229.66 1131 -230.32 1131 -231 1131 C-232.43812673 1129.43059199 -233.8003005 1127.79125965 -235.125 1126.125 C-235.93839844 1125.10664062 -236.75179687 1124.08828125 -237.58984375 1123.0390625 C-238.38519531 1122.03617188 -239.18054688 1121.03328125 -240 1120 C-240.62003906 1119.24460937 -241.24007812 1118.48921875 -241.87890625 1117.7109375 C-254.72697267 1102.00466192 -267.29881998 1085.64328121 -275.61279297 1067.05639648 C-280.551355 1056.26224971 -286.90734256 1046.17026861 -293 1036 C-296.6388891 1039.46621774 -299.55524085 1042.97894265 -302.4375 1047.125 C-303.31244448 1048.37074628 -304.18882868 1049.61548222 -305.06640625 1050.859375 C-305.53578613 1051.52517578 -306.00516602 1052.19097656 -306.48876953 1052.87695312 C-309.23999364 1056.74200076 -312.05789345 1060.55783989 -314.875 1064.375 C-315.4716748 1065.18396729 -316.06834961 1065.99293457 -316.68310547 1066.82641602 C-320.45027083 1071.92487743 -324.24793597 1076.99945249 -328.0625 1082.0625 C-332.78725124 1088.33579786 -337.42283291 1094.6689579 -341.97998047 1101.06518555 C-344.85912596 1105.09417302 -347.79990842 1109.0501361 -350.86328125 1112.94140625 C-351.50152832 1113.76600342 -352.13977539 1114.59060059 -352.79736328 1115.44018555 C-354.01561342 1117.00949692 -355.25115134 1118.56561279 -356.50732422 1120.10473633 C-361.14748885 1126.1382895 -362.2640274 1131.51137809 -363 1139 C-363.19420532 1140.59787354 -363.19420532 1140.59787354 -363.39233398 1142.22802734 C-365.01891658 1156.25977703 -365.95038622 1168.62096784 -361 1182 C-360.52192609 1183.34237339 -360.04406758 1184.6848235 -359.56640625 1186.02734375 C-358.58534407 1188.73242403 -357.56313984 1191.41683019 -356.5078125 1194.09375 C-355.49293413 1196.67801462 -354.55328396 1199.27087857 -353.6796875 1201.90625 C-350.85356768 1210.36683512 -348.91134331 1216.14724956 -340.6875 1220.375 C-339.46475038 1220.93100075 -338.23761658 1221.47792849 -337 1222 C-337 1222.66 -337 1223.32 -337 1224 C-336.443125 1224.20625 -335.88625 1224.4125 -335.3125 1224.625 C-332.06948759 1226.55327765 -329.72816171 1228.65934095 -328 1232 C-327.32655387 1235.4367132 -327.01055182 1238.61841534 -328 1242 C-341.43113771 1252.32791456 -364.00817597 1250.49905662 -379.71679688 1248.68652344 C-388.06709044 1247.33624851 -396.53260451 1244.63156683 -403 1239 C-404.57213209 1236.39785033 -405.19117605 1234.83088383 -406 1232 C-406.6561291 1230.20268932 -407.31276049 1228.40554803 -407.97729492 1226.61132812 C-411 1218.42331987 -411 1218.42331987 -411 1216 C-411.66 1216 -412.32 1216 -413 1216 C-416.78859973 1229.10521921 -416.72355726 1242.45888789 -417 1256 C-418.97909398 1256.02686553 -420.95828971 1256.04633375 -422.9375 1256.0625 C-424.03964844 1256.07410156 -425.14179688 1256.08570313 -426.27734375 1256.09765625 C-429 1256 -429 1256 -430 1255 C-430.15858842 1252.85613343 -430.25129298 1250.70733162 -430.31640625 1248.55859375 C-430.35830078 1247.25341797 -430.40019531 1245.94824219 -430.44335938 1244.60351562 C-430.48317608 1243.2148467 -430.52288825 1241.82617478 -430.5625 1240.4375 C-430.60567989 1239.04490817 -430.649294 1237.65232972 -430.69335938 1236.25976562 C-430.79985876 1232.83995199 -430.90186923 1229.42006237 -431 1226 C-431.60626221 1226.4954834 -432.21252441 1226.9909668 -432.8371582 1227.50146484 C-435 1229 -435 1229 -437.60546875 1228.9765625 C-442.42044681 1227.59135592 -446.80252435 1225.53902229 -451.3125 1223.375 C-452.21162109 1222.96121094 -453.11074219 1222.54742188 -454.03710938 1222.12109375 C-460.34603799 1219.11944875 -465.66113996 1215.4985521 -471 1211 C-471.02578125 1211.9178125 -471.0515625 1212.835625 -471.078125 1213.78125 C-471.46062183 1222.05709042 -471.87374416 1228.87374416 -478 1235 C-477.77890258 1237.19061 -477.52338222 1239.37779901 -477.25 1241.5625 C-477.18359375 1245.375 -477.18359375 1245.375 -478 1249 C-482.09389045 1253.13500556 -486.79023528 1255.51246697 -492 1258 C-493.03382813 1258.53496094 -494.06765625 1259.06992188 -495.1328125 1259.62109375 C-499.93629364 1261.98269381 -504.5641144 1264.10658599 -510 1264 C-512.03131672 1262.71488126 -514.03277992 1261.38123963 -516 1260 C-519.05800786 1259.44639513 -521.07995704 1259.43841862 -523.77709961 1261.0847168 C-525.72478351 1262.6002124 -527.58672202 1264.18012512 -529.4375 1265.8125 C-537.69392431 1272.98722287 -545.05834948 1275.46027082 -555.8125 1277.125 C-556.84181641 1277.29386719 -557.87113281 1277.46273438 -558.93164062 1277.63671875 C-561.9508159 1278.12177284 -564.97220496 1278.57225127 -568 1279 C-568.75966064 1279.10747559 -569.51932129 1279.21495117 -570.30200195 1279.32568359 C-578.46221553 1280.30351995 -586.70235151 1280.29398721 -594.91040039 1280.35009766 C-596.66606979 1280.36658281 -598.42167416 1280.39377363 -600.17700195 1280.43212891 C-617.19889015 1280.79997954 -632.2021786 1277.86829015 -647 1269 C-647.66 1268.34 -648.32 1267.68 -649 1267 C-649 1261.25460816 -648.00354598 1258.26705848 -644.07373047 1253.89819336 C-639.73831073 1249.92975818 -634.59989088 1247.106943 -629.5625 1244.125 C-628.38650863 1243.4144563 -627.21130106 1242.70261382 -626.03686523 1241.98950195 C-621.17510098 1239.04598654 -616.29119652 1236.14515941 -611.34375 1233.34765625 C-598.4233214 1226.01613138 -590.4041432 1216.99676186 -582.49072266 1204.64404297 C-576.68345483 1195.7076071 -568.19601026 1184.68561966 -557.69921875 1181.24609375 C-553.98322598 1179.53060649 -551.53874194 1177.01435088 -548.6875 1174.125 C-548.13771484 1173.59519531 -547.58792969 1173.06539062 -547.02148438 1172.51953125 C-543.45573673 1168.98734857 -543.45573673 1168.98734857 -543 1164 C-542.34 1164 -541.68 1164 -541 1164 C-540.78472656 1163.47664063 -540.56945312 1162.95328125 -540.34765625 1162.4140625 C-538.45963604 1159.03204369 -535.9754736 1156.2866829 -533.4375 1153.375 C-529.85426322 1149.44179069 -529.85426322 1149.44179069 -527 1145 C-526.34 1145 -525.68 1145 -525 1145 C-524.76023437 1144.42765625 -524.52046875 1143.8553125 -524.2734375 1143.265625 C-522.74802484 1140.55170063 -520.90962445 1138.86005182 -518.625 1136.75 C-514.51584386 1132.71281953 -512.23761994 1129.23272211 -510 1124 C-505.58011244 1114.42162298 -500.72226371 1106.20186075 -494 1098 C-493.32839844 1097.175 -492.65679687 1096.35 -491.96484375 1095.5 C-488.74963854 1091.71590162 -485.6837816 1088.70882974 -481.5625 1085.9375 C-476.63341371 1082.28070778 -474.31112845 1077.77404953 -471.51586914 1072.44995117 C-468.8565754 1067.40583076 -465.85442067 1062.85455145 -462.5 1058.25 C-454.61508097 1047.19464355 -449.63147048 1034.74053529 -445.125 1022 C-440.77042477 1009.77411268 -434.12774638 998.24534196 -426.625 987.6875 C-422.75654249 982.14983076 -420.94452013 976.58570398 -419.10546875 970.15234375 C-417.57724423 965.79447384 -415.95675747 964.60317319 -412.125 962.1875 C-407.84512831 959.19158982 -404.68855488 956.06566464 -403 951 C-402.79884352 948.8571247 -402.63653329 946.71046116 -402.5 944.5625 C-402.26671103 940.90069637 -401.94635131 937.53971787 -401 934 C-401.74531982 934.22550537 -402.49063965 934.45101074 -403.25854492 934.68334961 C-433.42455826 943.75578326 -463.923906 951.70886008 -495 957 C-495.96591064 957.17241211 -496.93182129 957.34482422 -497.92700195 957.52246094 C-508.45070896 959.29372038 -519.05314142 959.8836895 -529.69360352 960.52636719 C-544.77584718 961.45287105 -560.13296485 962.87270153 -573.73828125 969.94921875 C-579.14702968 972.46209151 -584.7760362 972.18306897 -590.625 972.1875 C-591.48351562 972.19974609 -592.34203125 972.21199219 -593.2265625 972.22460938 C-594.0515625 972.22654297 -594.8765625 972.22847656 -595.7265625 972.23046875 C-596.47502441 972.23457764 -597.22348633 972.23868652 -597.99462891 972.24291992 C-600 972 -600 972 -603 970 C-608.48861972 975.46532279 -613.97444092 980.93343817 -619.45682621 986.40501404 C-622.00332694 988.94632359 -624.55073765 991.48670605 -627.1003418 994.02490234 C-629.56648205 996.48007864 -632.03008301 998.93777792 -634.492033 1001.39715576 C-635.87660956 1002.77901905 -637.26372123 1004.15834075 -638.65089417 1005.53759766 C-643.1221452 1010.00845616 -647.46179165 1014.53001068 -651.57398987 1019.3346405 C-653.6136706 1021.71667244 -655.74723241 1024.00920949 -657.875 1026.3125 C-661.16432238 1029.91391171 -664.32017636 1033.57307275 -667.375 1037.375 C-671.24283546 1042.17220935 -675.35109495 1046.67204207 -679.56030273 1051.16577148 C-682.65750846 1054.49119755 -685.59607067 1057.88701675 -688.4375 1061.4375 C-691.94650907 1065.81261657 -695.6592107 1069.91940256 -699.5 1074 C-704.9415553 1079.79964474 -710.09053311 1085.73759421 -715 1092 C-715.48436523 1092.61182129 -715.96873047 1093.22364258 -716.46777344 1093.85400391 C-731.04658622 1112.31302378 -743.04861895 1132.06403516 -754.109375 1152.8046875 C-758.84272154 1161.67242155 -763.42055907 1170.18245726 -769.703125 1178.05859375 C-773.08283861 1182.38669639 -776.12169972 1186.93577221 -779.19555664 1191.48388672 C-782.69246456 1196.63349149 -786.10212197 1201.4447225 -790.9375 1205.4375 C-794.40263188 1208.39569592 -797.14884184 1211.45531689 -800 1215 C-801.66666667 1216.66666667 -803.33333333 1218.33333333 -805 1220 C-814.58677856 1229.62235102 -819.91748534 1239.29180392 -822.5324707 1252.56884766 C-823.44189001 1256.8916817 -824.5011593 1259.26872947 -828 1262 C-830.03515625 1263.23046875 -830.03515625 1263.23046875 -832.0625 1264.1875 C-832.73410156 1264.51105469 -833.40570312 1264.83460937 -834.09765625 1265.16796875 C-841.18620707 1268.26830001 -847.80383905 1267.76800907 -854.9375 1265 C-865.87617912 1259.9881985 -874.39130485 1253.57845525 -879.12890625 1242.31640625 C-882.45317539 1229.66033225 -880.95963822 1212.80534701 -874.5390625 1201.40625 C-872.08724974 1197.97122299 -869.52067501 1195.35658086 -866 1193 C-865.34 1193 -864.68 1193 -864 1193 C-864 1192.01 -864 1191.02 -864 1190 C-864.99 1189.34 -865.98 1188.68 -867 1188 C-866.50649229 1183.86863541 -865.62428552 1182.1968283 -862.375 1179.625 C-861.65054688 1179.02042969 -860.92609375 1178.41585938 -860.1796875 1177.79296875 C-859.46039062 1177.20128906 -858.74109375 1176.60960937 -858 1176 C-847.63924925 1167.32118931 -842.6323679 1155.48474119 -839.16577148 1142.74902344 C-836.61436383 1133.65379011 -831.92152832 1127.30985838 -825 1121 C-824.21625 1120.2575 -823.4325 1119.515 -822.625 1118.75 C-819.64419132 1116.76279421 -816.86389517 1115.82082373 -813.45703125 1114.78125 C-810.04973278 1113.69784826 -806.78225108 1112.32381556 -803.48046875 1110.95703125 C-801.11166904 1110.04308491 -798.75736298 1109.36409196 -796.3125 1108.6875 C-787.60700765 1105.80610464 -782.98557708 1097.7876749 -779 1090 C-777.16647523 1086.07549978 -775.46654723 1082.09431567 -773.76953125 1078.109375 C-772.18039639 1074.38551674 -770.48425922 1070.72141443 -768.75 1067.0625 C-766.05564005 1061.37198689 -763.51034294 1055.62360914 -760.99560547 1049.8515625 C-756.63870899 1039.8522253 -752.15315275 1029.99433452 -747.16210938 1020.29785156 C-745.77993928 1017.56487153 -744.44470362 1014.81085414 -743.109375 1012.0546875 C-729.70268206 984.52113296 -713.93723758 957.55101865 -693 935 C-692.51321777 934.47470703 -692.02643555 933.94941406 -691.52490234 933.40820312 C-682.48837793 923.77321367 -672.48654381 916.00933544 -661.5625 908.625 C-638.29297624 892.63422824 -623.50874663 871.00140486 -610.3125 846.41308594 C-608.92609912 843.86413015 -607.49845943 841.34165533 -606.0625 838.8203125 C-599.07175387 826.45077772 -593.355518 813.85813533 -588.07568359 800.67529297 C-581.31993287 783.87331467 -573.60037494 767.5725504 -563.015625 752.82421875 C-557.69421435 745.36805615 -553.49188903 737.29423709 -549.33398438 729.15136719 C-546.90057419 724.45274482 -544.16441101 720.24331388 -541 716 C-546.64543044 712.06910769 -552.35830572 708.65712053 -558.51953125 705.58984375 C-563.93771941 702.11708378 -565.57086439 697.73745987 -567.5625 691.8125 C-568.52303273 689.25919747 -569.52705093 687.35551364 -571 685 C-573.95347162 683.70544495 -576.30196112 683.45853917 -579.50390625 683.25 C-582 683 -582 683 -584.5625 680.9375 C-586.46146544 677.05700541 -587.46563531 673.2819486 -588 669 C-588.20689453 667.59814453 -588.20689453 667.59814453 -588.41796875 666.16796875 C-587.79932286 661.47897981 -585.21804157 659.12770769 -582.0625 655.75 C-581.47001465 655.09249756 -580.8775293 654.43499512 -580.26708984 653.75756836 C-578.52362071 651.82680974 -576.76275918 649.91313186 -575 648 C-573.37328597 646.18903818 -571.74800945 644.37678266 -570.125 642.5625 C-569.06152344 641.38880859 -569.06152344 641.38880859 -567.9765625 640.19140625 C-566.13043439 638.14461204 -564.31006716 636.07868443 -562.5 634 C-559.14139536 630.14611726 -555.72653334 626.34501759 -552.30078125 622.55078125 C-550.8358989 620.92672663 -549.37456169 619.29946215 -547.91796875 617.66796875 C-545.62363112 615.10120513 -543.31492693 612.54821414 -541 610 C-540.55188965 609.50532227 -540.1037793 609.01064453 -539.64208984 608.50097656 C-531.34631274 599.37702544 -522.70842314 590.60246259 -514 581.875 C-513.45166504 581.32407684 -512.90333008 580.77315369 -512.33837891 580.20553589 C-510.749366 578.61060758 -509.15660857 577.01952118 -507.5625 575.4296875 C-506.63566406 574.50397949 -505.70882813 573.57827148 -504.75390625 572.62451172 C-501.92993914 569.93323101 -499.02306472 567.46264016 -496 565 C-496.55429687 564.73445312 -497.10859375 564.46890625 -497.6796875 564.1953125 C-498.40414063 563.84210937 -499.12859375 563.48890625 -499.875 563.125 C-500.95394531 562.60292969 -500.95394531 562.60292969 -502.0546875 562.0703125 C-504 561 -504 561 -506 559 C-507.51835836 548.79521941 -504.59510443 537.63294175 -500.8828125 528.14453125 C-499.65085523 523.75636487 -499.70208417 519.59853205 -499.75 515.0625 C-499.75749268 514.1353418 -499.76498535 513.20818359 -499.77270508 512.25292969 C-499.96486603 499.82151187 -500.50328674 488.80366261 -508.10693359 478.5 C-512.65249011 471.91543163 -514.71472447 464.45245781 -517 456.875 C-517.21688477 456.16813049 -517.43376953 455.46126099 -517.65722656 454.73297119 C-524.81790449 431.3836509 -532.02223327 407.47328716 -526.72265625 383.14453125 C-525.85242027 378.67257512 -525.66526164 374.23172306 -525.5 369.6875 C-525.21156424 362.9935608 -524.58303316 357.2504113 -522 351 C-521.7220459 350.31341309 -521.4440918 349.62682617 -521.15771484 348.91943359 C-520.16850324 346.49906511 -519.15241279 344.09188981 -518.125 341.6875 C-517.79749756 340.90955078 -517.46999512 340.13160156 -517.13256836 339.33007812 C-513.72288729 331.63643878 -508.28759437 327.28204878 -501.75 322.25 C-495.47555114 317.81780541 -495.47555114 317.81780541 -493.3125 310.9375 C-493.20550781 310.01839844 -493.09851563 309.09929687 -492.98828125 308.15234375 C-491.58497515 303.67618555 -488.91412368 300.62034723 -486 297 C-484.94858294 295.62324858 -483.90166391 294.24304987 -482.859375 292.859375 C-481.2914561 290.78720077 -479.7234822 288.71520347 -478.1484375 286.6484375 C-477.64054687 285.97554688 -477.13265625 285.30265625 -476.609375 284.609375 C-476.15530273 284.01092773 -475.70123047 283.41248047 -475.23339844 282.79589844 C-473.95450133 280.93375135 -472.96265567 279.04100974 -472 277 C-472.70769531 276.75894531 -473.41539062 276.51789063 -474.14453125 276.26953125 C-477.44418729 274.80251591 -479.8855402 272.96194213 -482.6875 270.6875 C-483.64011719 269.92824219 -484.59273438 269.16898437 -485.57421875 268.38671875 C-488.05013647 265.95067088 -489.09919525 264.32519286 -490 261 C-489.814375 260.319375 -489.62875 259.63875 -489.4375 258.9375 C-489.293125 258.298125 -489.14875 257.65875 -489 257 C-489.495 256.443125 -489.99 255.88625 -490.5 255.3125 C-492.86411988 251.66781519 -491.73209056 248.12793231 -491 244 C-492.19109375 243.16855469 -492.19109375 243.16855469 -493.40625 242.3203125 C-494.4271875 241.59585938 -495.448125 240.87140625 -496.5 240.125 C-497.5209375 239.40570313 -498.541875 238.68640625 -499.59375 237.9453125 C-500.3878125 237.30335938 -501.181875 236.66140625 -502 236 C-502 235.34 -502 234.68 -502 234 C-502.66 234 -503.32 234 -504 234 C-505.55078125 232.41796875 -505.55078125 232.41796875 -507.3125 230.1875 C-507.88613281 229.47980469 -508.45976562 228.77210938 -509.05078125 228.04296875 C-514.47446098 219.57594167 -516.95867059 211.21435391 -518.3125 201.3125 C-518.47564697 200.17417725 -518.63879395 199.03585449 -518.80688477 197.86303711 C-521.48618361 178.10128032 -520.21638674 163.27982381 -508 147 C-504.19009839 142.16430724 -500.14414963 137.55010715 -496 133 C-495.36191406 132.28972656 -494.72382813 131.57945312 -494.06640625 130.84765625 C-484.37759321 120.60121369 -473.18298027 114.38329448 -459.375 112.0625 C-451.63026248 110.64759603 -444.3778537 108.69806056 -436.96875 106.05078125 C-427.47776761 102.69147301 -420.04767162 103.72602721 -411 108 C-406.24994837 110.85159349 -402.26554863 113.80256491 -400 119 C-399.93554688 119.78375 -399.87109375 120.5675 -399.8046875 121.375 C-398.35523479 126.10331176 -393.74041237 127.98582775 -389.78515625 130.62109375 C-387 133 -387 133 -386.18359375 136.03515625 C-384.80696678 139.48353865 -384.27669687 139.68230942 -381.02734375 141.1484375 C-379.36208001 141.79346455 -377.68537048 142.40950059 -376 143 C-375.14937988 143.30711914 -374.29875977 143.61423828 -373.42236328 143.93066406 C-369.91025678 145.17177946 -366.37917325 146.35257988 -362.84570312 147.53125 C-361.99041016 147.82257813 -361.13511719 148.11390625 -360.25390625 148.4140625 C-359.48377197 148.6713916 -358.7136377 148.9287207 -357.92016602 149.19384766 C-356 150 -356 150 -354 152 C-353.4636847 156.46929414 -353.96662355 159.27492308 -356.125 163.125 C-357.81244346 166.17322209 -357.81244346 166.17322209 -357.625 169.625 C-356.14332196 171.79052944 -354.72398733 173.23623886 -352.8125 175 C-351.203125 176.5234375 -351.203125 176.5234375 -350 178 C-350.0625 180.625 -350.0625 180.625 -351 183 C-351.185625 183.763125 -351.37125 184.52625 -351.5625 185.3125 C-351.706875 185.869375 -351.85125 186.42625 -352 187 C-349.03 188.485 -349.03 188.485 -346 190 C-346.656379 194.48525648 -347.70074209 198.66914029 -349 203 C-348.1028125 203.3403125 -348.1028125 203.3403125 -347.1875 203.6875 C-344.30578765 205.41652741 -343.32927572 206.92167728 -342 210 C-342.10718544 215.0377158 -343.96204336 218.06882355 -347 222 C-350.06640625 223.984375 -350.06640625 223.984375 -353.5625 225.75 C-361.45603994 229.98968013 -370.76871919 235.37190312 -374 244.1875 C-374.38247465 245.78066507 -374.70753599 247.38788133 -375 249 C-375.27199219 250.28648437 -375.54398437 251.57296875 -375.82421875 252.8984375 C-376.59831961 256.59060353 -377.31098824 260.29106435 -378 264 C-377.24976563 264.13277344 -376.49953125 264.26554687 -375.7265625 264.40234375 C-373 265 -373 265 -369.375 266.5625 C-359.50493674 270.28914071 -350.55347977 267.25177128 -341 264 C-338.79225696 263.37291806 -336.58392755 262.74789663 -334.375 262.125 C-328.9084211 260.45981638 -324.16454531 258.15429584 -319.2421875 255.26953125 C-315.04044575 252.89049628 -311.77534348 252.62062812 -307 253 C-303.57911651 254.0987818 -300.33645273 255.52609885 -297.0625 257 C-296.18787109 257.3815625 -295.31324219 257.763125 -294.41210938 258.15625 C-292.26947468 259.09292091 -290.13268579 260.040945 -288 261 C-283.87189968 254.80784952 -280.35723819 247.35339499 -279 240 C-279.95413738 235.86540467 -281.82924033 233.73092344 -285 231 C-285.804375 230.21625 -286.60875 229.4325 -287.4375 228.625 C-294.29065021 224.27909986 -299.43084971 223.7374752 -307.48828125 223.30078125 C-314.77114573 222.67699864 -321.30696673 220.72105198 -327 216 C-330.20132191 211.81191768 -330.25241213 208.80996575 -330 203.625 C-329.82302206 197.84927287 -330.42536945 194.14926109 -333 189 C-333.21697292 187.44368808 -333.3810305 185.87935363 -333.5 184.3125 C-333.79213816 180.55915978 -334.66675522 178.96958427 -337 176 C-336.50825865 172.46067645 -335.48350089 169.09837248 -334.4375 165.6875 C-334.03337891 164.36298828 -334.03337891 164.36298828 -333.62109375 163.01171875 C-333.41613281 162.34785156 -333.21117187 161.68398437 -333 161 C-333.56589844 160.72285156 -334.13179687 160.44570312 -334.71484375 160.16015625 C-335.44832031 159.79792969 -336.18179688 159.43570313 -336.9375 159.0625 C-337.66839844 158.70285156 -338.39929688 158.34320313 -339.15234375 157.97265625 C-341 157 -341 157 -342 156 C-342.50426963 151.78199468 -342.36952269 149.02244514 -339.875 145.60546875 C-338.93367246 144.45205558 -337.97442127 143.31309436 -337 142.1875 C-336.25592896 141.28717041 -336.25592896 141.28717041 -335.49682617 140.36865234 C-334.49058195 139.15195711 -333.47783612 137.94060813 -332.45849609 136.73486328 C-330.35892867 134.23745348 -328.33867909 131.6822781 -326.3125 129.125 C-325.20898532 127.74947669 -324.10509978 126.37425016 -323 125 C-323.50015625 124.22011719 -324.0003125 123.44023438 -324.515625 122.63671875 C-326 120 -326 120 -325.75 117.8125 C-325.21535034 116.52043 -324.62534713 115.25069425 -324 114 C-324.75095947 113.92483154 -325.50191895 113.84966309 -326.27563477 113.7722168 C-329.70588604 113.42223435 -333.13408585 113.055026 -336.5625 112.6875 C-337.74392578 112.56955078 -338.92535156 112.45160156 -340.14257812 112.33007812 C-346.30500001 111.65687237 -351.48646286 110.89035648 -357 108 C-356.75 104.625 -356.75 104.625 -356 101 C-352.45033862 98.18315002 -348.04128198 98.74670925 -343.734375 98.8046875 C-342.94097717 98.8075174 -342.14757935 98.81034729 -341.33013916 98.81326294 C-338.80327083 98.82443221 -336.27676068 98.84953056 -333.75 98.875 C-332.0338593 98.88503402 -330.31771302 98.89415913 -328.6015625 98.90234375 C-324.40090426 98.92436086 -320.2005128 98.95886813 -316 99 C-315.61199219 97.76378906 -315.22398437 96.52757813 -314.82421875 95.25390625 C-312.84432424 89.32349079 -310.34908679 83.64743892 -307.8125 77.9375 C-307.32491211 76.83639893 -306.83732422 75.73529785 -306.33496094 74.60083008 C-289.9109265 37.77076862 -289.9109265 37.77076862 -283 33 C-275.15542708 31.78824455 -266.7055992 33.64411595 -258.9375 34.75 C-257.65270752 34.93191895 -256.36791504 35.11383789 -255.04418945 35.30126953 C-228.24231426 39.2182197 -202.25333051 47.51134962 -181 65 C-180.10667969 65.73089844 -179.21335937 66.46179688 -178.29296875 67.21484375 C-172.29199066 72.35477374 -167.52836734 77.41489798 -165 85 C-164.72323287 90.16422305 -165.40575119 94.7303353 -166.75 99.6875 C-166.95391357 100.45553955 -167.15782715 101.2235791 -167.36791992 102.01489258 C-171.56823721 117.20109214 -176.92466234 132.0891501 -182 147 C-181.26644287 147.12906738 -180.53288574 147.25813477 -179.77709961 147.39111328 C-177.19231135 147.95783521 -174.99543245 148.71023253 -172.56640625 149.7421875 C-171.75236328 150.08636719 -170.93832031 150.43054688 -170.09960938 150.78515625 C-169.26236328 151.14480469 -168.42511719 151.50445312 -167.5625 151.875 C-166.72912109 152.22691406 -165.89574219 152.57882813 -165.03710938 152.94140625 C-160.61175703 154.82349286 -156.27178332 156.79117545 -152 159 C-152.33 160.32 -152.66 161.64 -153 163 C-156.79537631 164.2187375 -160.42791621 164.11338128 -164.390625 164.09765625 C-165.09523865 164.0962413 -165.79985229 164.09482635 -166.52581787 164.09336853 C-168.76725584 164.08778933 -171.00859243 164.07524073 -173.25 164.0625 C-174.77343605 164.05748231 -176.29687368 164.05291987 -177.8203125 164.04882812 C-181.54690772 164.03782674 -185.27344396 164.02057646 -189 164 C-188.83701416 164.76981201 -188.67402832 165.53962402 -188.50610352 166.33276367 C-187.98763921 169.0651431 -187.90047701 171.53577588 -187.9375 174.3125 C-187.94652344 175.19550781 -187.95554687 176.07851562 -187.96484375 176.98828125 C-187.97644531 177.65214844 -187.98804688 178.31601563 -188 179 C-188.66 179 -189.32 179 -190 179 C-190.33 180.98 -190.66 182.96 -191 185 C-191.66 185 -192.32 185 -193 185 C-193.13277344 185.85464844 -193.26554688 186.70929688 -193.40234375 187.58984375 C-193.57894531 188.69457031 -193.75554688 189.79929688 -193.9375 190.9375 C-194.11152344 192.03964844 -194.28554688 193.14179688 -194.46484375 194.27734375 C-195 197 -195 197 -196 198 C-197.99958364 198.04080783 -200.00045254 198.04254356 -202 198 C-202 198.99 -202 199.98 -202 201 C-201.01 201.33 -200.02 201.66 -199 202 C-197.09765625 204.328125 -197.09765625 204.328125 -195.0625 207.25 C-188.86759986 216.15415391 -188.86759986 216.15415391 -180 222 C-179.01 221.67 -178.02 221.34 -177 221 C-174.6243844 221.03133306 -172.24916469 221.09876859 -169.875 221.1875 C-164.32966259 221.2850294 -160.24553133 220.71348594 -155.31640625 218.14453125 C-142.46745229 211.79589126 -125.20655382 209.79054338 -111 210 C-111 209.34 -111 208.68 -111 208 C-106.45699761 205.27419857 -102.89047526 206.36686848 -98.01171875 207.4921875 C-97.34785156 207.65976563 -96.68398438 207.82734375 -96 208 C-95.75378906 207.43410156 -95.50757813 206.86820313 -95.25390625 206.28515625 C-93.78463776 203.60751742 -92.02247565 201.66956388 -89.9375 199.4375 C-86.70801662 195.91957792 -83.61539482 192.34817625 -80.625 188.625 C-76.94428153 184.07219493 -73.07351352 179.76582589 -69.08862305 175.4831543 C-65.28614986 171.37239043 -61.75736701 167.07733477 -58.24609375 162.71484375 C-55.9116941 159.89326505 -53.48009402 157.19409288 -51 154.5 C-50.16726563 153.5821875 -49.33453125 152.664375 -48.4765625 151.71875 C-46.88581064 149.97243566 -45.2776931 148.24169774 -43.6484375 146.53125 C-36.34680046 138.40159226 -32.77878897 129.09530497 -29 119 C-28.54238281 117.82050781 -28.08476563 116.64101562 -27.61328125 115.42578125 C-25.40224708 109.36677183 -24.57036208 104.44456876 -25 98 C-25.93070313 97.79375 -26.86140625 97.5875 -27.8203125 97.375 C-31 96 -31 96 -32.6796875 93.25 C-33.07414063 92.1775 -33.46859375 91.105 -33.875 90 C-34.48988281 88.39125 -34.48988281 88.39125 -35.1171875 86.75 C-36 84 -36 84 -36 82 C-36.825 81.79375 -37.65 81.5875 -38.5 81.375 C-46.58574793 78.19845617 -51.0456277 73.49394396 -54.9453125 65.7578125 C-56.43647781 61.85869135 -56.4426836 59.13171363 -56 55 C-55.88371339 51.99361305 -55.88371339 51.99361305 -56.6875 49.125 C-57 46 -57 46 -55.4375 43.6875 C-53.48715874 40.04120982 -54.32793508 37.96044898 -55.359375 34.0859375 C-55.88234422 32.38309871 -56.4366922 30.68992339 -57 29 C-57.06970052 26.60509014 -57.08448003 24.20832309 -57.0625 21.8125 C-57.05347656 20.54019531 -57.04445313 19.26789062 -57.03515625 17.95703125 C-57.01775391 16.49330078 -57.01775391 16.49330078 -57 15 C-53.40650422 13.09664333 -50.18752841 11.62457943 -46.1875 10.875 C-43.31052141 10.49065051 -43.31052141 10.49065051 -41 9 C-38.77470737 8.78778666 -36.54407117 8.63058306 -34.3125 8.5 C-30.78709689 8.29152843 -27.36197227 8.06115927 -23.87890625 7.47265625 C-21.06499818 7.01067134 -18.47189462 6.89902845 -15.625 6.9375 C-14.31402344 6.95103516 -14.31402344 6.95103516 -12.9765625 6.96484375 C-12.32429687 6.97644531 -11.67203125 6.98804688 -11 7 C-10.54367187 6.06414063 -10.54367187 6.06414063 -10.078125 5.109375 C-7.54750166 0.15815543 -5.52942674 -0.36862845 0 0 Z M-26 190 C-27.04814376 191.47431844 -28.04733431 192.98344524 -29.02734375 194.50390625 C-29.65020264 195.46554688 -30.27306152 196.4271875 -30.91479492 197.41796875 C-31.91603394 198.97451172 -31.91603394 198.97451172 -32.9375 200.5625 C-34.30662344 202.67881787 -35.67641633 204.79470279 -37.046875 206.91015625 C-37.72041016 207.95059082 -38.39394531 208.99102539 -39.08789062 210.06298828 C-41.96295121 214.47909896 -44.89334088 218.85741966 -47.85327148 223.21704102 C-50.43502629 227.04912663 -52.74606464 230.97039095 -55 235 C-53.39592672 235.02708567 -51.7917215 235.04643483 -50.1875 235.0625 C-48.84751953 235.07990234 -48.84751953 235.07990234 -47.48046875 235.09765625 C-44.86586209 235.11009967 -44.86586209 235.11009967 -42 234 C-41.05146951 232.10293903 -40.11331551 230.19981983 -39.234375 228.26953125 C-37.91588932 225.84535347 -36.38292732 224.19515114 -34.5 222.1875 C-29.39689466 215.93701552 -28.74722191 208.02628201 -27.42724609 200.29638672 C-26.78018004 196.8184991 -25.89740344 193.42110569 -25 190 C-25.33 190 -25.66 190 -26 190 Z M-313 653 C-313.66 653.33 -314.32 653.66 -315 654 C-315.40729228 656.32156597 -315.74438677 658.6568787 -316 661 C-317.32 661 -318.64 661 -320 661 C-322.60075444 661.4265686 -322.60075444 661.4265686 -325 663 C-327.41812155 666.77353046 -329.19511782 670.65375108 -331.0234375 674.734375 C-335.05470549 683.72936777 -341.03648242 692.03648242 -348 699 C-347.55011719 699.59941406 -347.10023438 700.19882812 -346.63671875 700.81640625 C-339.78584513 710.46803783 -335.0271882 721.0102673 -330.10986328 731.73852539 C-328.96814348 734.19011904 -328.96814348 734.19011904 -327 737 C-326.95512451 736.16041748 -326.91024902 735.32083496 -326.86401367 734.45581055 C-324.5428585 692.19806771 -324.5428585 692.19806771 -317.5 674.80859375 C-312.70202999 664.07650638 -312.70202999 664.07650638 -313 653 Z " fill="#FEFEFE" transform="translate(880,0)"/>
<path d="M0 0 C0.33 0.66 0.66 1.32 1 2 C0.48050781 2.36351562 -0.03898438 2.72703125 -0.57421875 3.1015625 C-5.09730013 6.36219418 -8.62064189 9.56459248 -12 14 C-12.33 13.01 -12.66 12.02 -13 11 C-9.95491768 5.70794161 -5.33061613 2.66530807 0 0 Z " fill="#FEFEFE" transform="translate(245,1248)"/>
<path d="M0 0 C0 0.99 0 1.98 0 3 C-0.680625 3.61875 -1.36125 4.2375 -2.0625 4.875 C-2.701875 5.57625 -3.34125 6.2775 -4 7 C-3.85974801 9.70705512 -3.85974801 9.70705512 -3 12 C-3.66 12 -4.32 12 -5 12 C-5.75 9.3125 -5.75 9.3125 -6 6 C-4.22960551 3.25283613 -2.93708156 1.46854078 0 0 Z " fill="#FEFEFE" transform="translate(640,1229)"/>
</svg>
